<svg width="64" height="24" viewBox="0 0 64 24" fill="none" xmlns="http://www.w3.org/2000/svg">
<path d="M20.592 7.632C20.592 5.296 20.176 2.752 19.344 0H32.16C32.192 0.48 32.208 1.184 32.208 2.112C32.208 6.208 31.664 9.584 30.576 12.24C27.632 13.52 25.264 14.816 23.472 16.128C21.712 17.408 20.832 18.736 20.832 20.112C20.832 21.488 21.424 22.784 22.608 24H10.56C5.152 17.12 1.76 9.12 0.384 0H13.488C13.616 5.856 15.12 11.568 18 17.136C19.728 14.256 20.592 11.088 20.592 7.632ZM53.574 10.368L58.134 10.656C58.55 10.656 58.87 10.64 59.094 10.608L56.838 14.832H56.406C55.798 14.832 54.934 14.672 53.814 14.352C52.694 14 51.894 13.824 51.414 13.824C50.166 13.824 49.158 14.64 48.39 16.272C48.23 18.096 48.15 19.536 48.15 20.592C48.15 21.648 48.182 22.784 48.246 24H37.83C37.222 19.904 36.918 15.68 36.918 11.328C36.918 6.944 37.142 3.184 37.59 0.0479994H63.222C62.646 3.504 62.134 5.92 61.686 7.296L56.502 7.536C56.79 6.736 56.934 6.048 56.934 5.472C56.934 3.936 55.766 3.168 53.43 3.168C52.406 3.168 51.462 3.248 50.598 3.408C49.894 6.256 49.318 9.168 48.87 12.144C50.15 10.96 51.718 10.368 53.574 10.368Z" fill="#EBF21B"/>
</svg>
